<?xml version="1.0" encoding="utf-8"?>
<!-- Generator: Adobe Illustrator 25.0.0, SVG Export Plug-In . SVG Version: 6.00 Build 0)  -->
<svg version="1.1" id="Layer_1" xmlns="http://www.w3.org/2000/svg" xmlns:xlink="http://www.w3.org/1999/xlink" x="0px" y="0px"
	 viewBox="0 0 1920 1080" style="enable-background:new 0 0 1920 1080;" xml:space="preserve">
<style type="text/css">
	.st0{fill:#C1272D;}
	.st1{fill:#FFFFFF;}
	.st2{fill:none;stroke:#FBB03B;stroke-width:32;stroke-miterlimit:10;}
	.st3{font-family:'AgencyFB-Reg';}
	.st4{font-size:46.2958px;}
	.st5{letter-spacing:5.61;}
</style>
<g>
	<path class="st0" d="M1003.78,378.81c4.39-7.87,8.19-14.94,12.24-21.86c10.32-17.64,18.06-36.4,25.2-55.52
		c4.45-11.93,7.79-24.06,8.94-36.58c1.25-13.58,1.29-27.17-5.87-39.85c-6.35-11.24-15.87-18.55-27.85-20.98
		c-13.78-2.79-28.06-4.45-42.1-4.35c-34,0.23-66.81,8.22-99.33,17.55c-29.84,8.56-58.77,19.49-87.28,31.75
		c-31.65,13.61-62.61,28.54-92.61,45.47c-17.59,9.92-35.43,19.44-52.65,29.96c-21.26,12.99-41.98,26.86-62.99,40.25
		c-1.6,1.02-3.73,1.75-5.6,1.71c-21.45-0.47-42.89-1.11-64.34-1.75c-1.78-0.05-3.55-0.5-5.84-1.99c4.74-3.57,9.4-7.27,14.25-10.7
		c14.44-10.21,28.67-20.76,43.51-30.35c19.94-12.89,40.23-25.24,60.63-37.39c16.65-9.91,33.4-19.71,50.6-28.6
		c20.21-10.44,40.7-20.4,61.53-29.54c21.74-9.54,43.74-18.66,66.14-26.49c24.62-8.61,49.76-15.79,74.82-23.08
		c12.93-3.76,26.06-7.09,39.31-9.39c25.46-4.42,51.03-7.4,77.06-5.07c16.16,1.44,31.69,4.52,46.21,11.72
		c20.81,10.31,34.25,26.61,39.8,49.42c5.87,24.13,3.84,47.99-2.41,71.54c-5,18.85-13.28,36.46-23.96,52.8
		c-5.88,9-12.45,17.55-18.69,26.31c-2.41,3.39-5.52,5.18-9.84,5.05C1016.68,378.68,1010.7,378.81,1003.78,378.81z"/>
	<path class="st0" d="M235.19,373.91c5.29,0,10.58-0.06,15.87,0.01c16.53,0.21,33.07,0.53,49.6,0.64c4.32,0.03,7.48,1.48,10.69,4.56
		c13.61,13.07,27.57,25.77,41.38,38.63c8.38,7.81,16.53,15.87,25.13,23.41c3.02,2.65,2.48,4.15,0.07,6.39
		c-8.39,7.82-16.56,15.86-25.12,23.48c-8.29,7.38-8.65,7.41-16.78-0.08c-12-11.07-23.61-22.55-35.53-33.71
		c-12.42-11.63-25.05-23.03-37.5-34.62c-9.47-8.82-18.81-17.77-28.21-26.67C234.93,375.27,235.06,374.59,235.19,373.91z"/>
	<path class="st0" d="M544.9,591.65c-4.64,0.23-9.28,0.58-13.93,0.66c-19.24,0.31-38.49,0.63-57.73,0.64c-2.17,0-4.77-1.44-6.43-3
		c-13.97-13.15-28.03-26.24-41.54-39.87c-8.5-8.58-16.1-18.06-24.1-27.13c-1.12,0.14-2.24,0.27-3.36,0.41
		c1.62-0.9,3.4-1.6,4.82-2.75c9.71-7.85,19.41-15.71,28.96-23.75c3.09-2.6,5.47-2.37,8.37,0.2c22.9,20.36,45.82,40.69,68.82,60.92
		c10.25,9.01,20.7,17.78,31.09,26.63c2.02,1.72,4.16,3.29,6.25,4.92C545.72,590.25,545.31,590.95,544.9,591.65z"/>
	<g>
		<path class="st0" d="M167.6,838.58c7.7,10.65,18.62,17.4,30.84,21.94c1.14,0.42,2.05,0.94,2.76,1.56l28.91,6.33
			c26.75,3.19,53.45,0.95,79.91-3.76c21.88-3.89,43.53-9.29,65.03-14.99c15.78-4.19,31.09-10.16,46.71-14.99
			c32.16-9.94,63.13-22.94,93.62-36.99c35.87-16.54,70.7-35.15,104.43-55.76c14.08-8.6,28.18-17.18,42-26.17
			c14.26-9.28,28.27-18.95,42.25-28.65c12.6-8.74,25.26-17.42,37.43-26.73c18.08-13.83,35.79-28.15,53.58-42.36
			c2.54-2.03,4.63-4.62,8-8.03c-10.46-0.88-19.3-1.69-28.16-2.28c-1.15-0.08-2.56,0.77-3.54,1.57
			c-12.11,9.89-23.92,20.18-36.3,29.72c-12.93,9.97-26.17,19.6-39.7,28.74c-12.69,8.57-25.71,16.71-38.98,24.34
			c-27.03,15.56-54.03,31.22-81.61,45.76c-22.68,11.95-45.96,22.83-69.37,33.32c-31.1,13.93-62.46,27.29-93.93,40.38
			c-20.24,8.42-41.13,14.99-62.46,20.31c-27.84,6.94-55.84,11.94-84.59,9.33c-11.51-1.04-23.06-3.12-34.2-6.15
			c-10.82-2.94-20.39-9.51-25.36-19.65c-7.31-14.89-8.69-31.31-4.94-47.37c3.24-13.86,7.61-27.64,13.22-40.71
			c5.62-13.09,12.92-25.54,20.35-37.73c5.67-9.3,12.28-18.11,19.21-26.54c17.64-21.46,35.34-42.9,53.7-63.74
			c11.89-13.5,24.79-26.15,37.6-38.81c16.07-15.9,32.2-31.77,48.87-47.03c16.78-15.36,34.11-30.14,51.47-44.85
			c17.21-14.59,34.58-29.01,52.23-43.07c13.14-10.47,26.85-20.23,40.3-30.32c5.18-3.89,10.35-7.79,16.35-12.3
			c-2.18-0.59-3.23-1.11-4.3-1.13c-21.8-0.45-43.59-0.96-65.39-1.12c-2.76-0.02-6,1.21-8.24,2.89
			c-16.82,12.71-33.77,25.28-50.05,38.66c-25.14,20.66-50.38,41.25-74.44,63.13c-19.91,18.11-38.74,37.52-57.01,57.32
			c-19.99,21.65-39.56,43.78-57.88,66.84c-19.47,24.5-37.06,50.48-52,78.1c-12.36,22.86-23.49,46.19-29.16,71.79
			c-4.48,20.19-4.34,40.19,2.37,59.76C159.53,826.01,163.32,832.65,167.6,838.58z"/>
	</g>
	<path class="st1" d="M1542.22,552.67c-1.5,0.56-3.02,1.07-4.48,1.69c-1.66,0.71-3.28,1.53-5,2.33c-1.24-2.04-2.67-4.4-4.52-7.46
		c2.39,0.36,4.14,0.62,6.49,0.96c-1.04,1.14-1.62,1.78-2.39,2.63c0.65,0.28,1.36,0.85,1.66,0.68c1.02-0.58,1.89-1.41,2.76-2.32
		c0.7,0.84,1.85,1.59,2.98-0.6c1,0.91,1.78,1.63,2.57,2.35C1542.28,552.92,1542.22,552.67,1542.22,552.67z"/>
	<path class="st1" d="M1535.99,541.11c-2.32-0.25-3.65-0.39-6.03-0.64c1.3-1.12,2.12-2.27,2.58-2.14c1.53,0.44,3.11,1.13,4.29,2.16
		c0.41,0.36-0.23,2.01-0.53,3.03c-0.12,0.4-0.82,0.62-0.94,1.02c-0.2,0.67-0.14,1.42-0.2,2.14c-1.18-0.34-2.36-0.67-3.54-1.01
		c0.46-0.81,0.8-1.72,1.41-2.39C1533.62,542.61,1534.49,542.18,1535.99,541.11z"/>
	<path class="st1" d="M1524.12,557.58c1.3-0.49,2.27-0.76,3.14-1.21c0.89-0.46,1.68-1.1,2.65-1.75c1.61,2.29,1.14,4.05-1.25,5.07
		C1527.52,559.16,1526.19,558.54,1524.12,557.58z"/>
	<path class="st1" d="M1542.22,552.67c0,0,0.06,0.25,0.06,0.25c0-0.37,0.01-0.75,0.01-1.12c0.45,0.14,1.27,0.21,1.3,0.42
		c0.11,0.7,0.14,1.53-0.15,2.14c-0.55,1.18-1.35,2.24-2.04,3.36c0.2,0.25,0.4,0.5,0.6,0.75c-1.51,0.37-3.03,0.75-4.66,1.15
		C1539.2,556.96,1540.71,554.82,1542.22,552.67z"/>
	<path class="st1" d="M1534.52,575.46c-0.87,0.28-1.77,0.87-2.59,0.77c-1.33-0.16-2.6-0.78-3.95-1.22c4.45-2.43,4.45-2.43,6.63,0.55
		L1534.52,575.46z"/>
	<path class="st1" d="M1525.93,570.16c-0.25-4.57,0.93-5.83,4.59-4.21c-1.25,0.72-2.25,1.29-3.48,2c0.5,0.57,0.93,1.05,1.74,1.97
		c-1.19,0.08-2.04,0.14-2.88,0.2L1525.93,570.16z"/>
	<path class="st1" d="M1538.84,531.36c0.95,1.92,1.71,3.46,2.66,5.39c-1.47-0.14-2.75-0.27-4.3-0.42
		C1537.8,534.5,1538.28,533.03,1538.84,531.36z"/>
	<path class="st1" d="M1544.79,547.56c0.61-1.19,1.15-2.43,1.9-3.52c0.16-0.24,1.07,0.02,1.64,0.05c-0.67,1.38-1.33,2.76-2,4.14
		C1545.81,548,1545.3,547.78,1544.79,547.56z"/>
	<path class="st1" d="M1534.61,575.55c0-1.01,0-2.02,0-3.56c1.98,1.74,3.41,2.98,4.83,4.23c-0.14,0.14-0.27,0.29-0.41,0.43
		c-1.5-0.4-3.01-0.8-4.51-1.2C1534.52,575.46,1534.61,575.55,1534.61,575.55z"/>
	<path class="st1" d="M1550.79,580.57c2.56,2.78,2.3,3.73-1.25,5.32C1549.92,584.26,1550.34,582.5,1550.79,580.57z"/>
	<g>
		<path d="M1719.84,549.83c15.23,14.73,31.72,27.14,46.39,41.53c-0.15,0.33-0.29,0.66-0.44,0.99c-2.39,0.18-4.78,0.54-7.17,0.51
			c-13.68-0.14-27.37-0.76-41.04-0.39c-5.59,0.15-8.9-2.91-12.56-5.74c-6.27-4.85-12.33-9.99-18.35-15.16
			c-5.29-4.54-10.3-9.38-15.61-13.9c-5.67-4.83-11.59-9.38-17.31-14.15c-4.18-3.48-8.15-7.21-12.33-10.68
			c-5.17-4.28-10.51-8.36-15.69-12.62c-2.8-2.3-5.41-4.82-7.82-7.94c4.77,0,9.55-0.02,14.32,0c13.46,0.08,26.92,0.22,40.37,0.42
			c10.58,0.16,21.16,0.23,31.74,0.26c1.74,0,4.09,0.75,4.12-2.49c0.02-2.79-0.43-4.92-3.87-4.96c-7.7-0.09-15.4-0.22-23.09-0.34
			c-9.94-0.15-19.88-0.36-29.82-0.43c-13.59-0.1-27.18-0.13-40.77-0.11c-3.9,0.01-3.96,0.52-3.55,4.55
			c0.33,3.22-0.22,6.52-0.15,9.78c0.08,3.68,0.46,7.35,0.62,11.04c0.52,12.16,0.93,24.33,1.53,36.49c0.28,5.71,0.9,11.4,1.36,17.1
			c0.07,0.85,0.15,1.71,0.16,2.56c0.02,4.24-0.52,4.43-4.6,4.34c-10.7-0.24-21.41-0.2-32.12-0.26c-5.62-0.03-5.9-0.16-6.12-5.66
			c-0.52-13.15-0.8-26.31-1.37-39.45c-0.33-7.58-1.29-15.13-1.54-22.71c-0.53-15.46-0.76-30.92-1.16-46.39
			c-0.03-1.26-0.32-2.52-0.61-3.75c-0.59-2.48,1-4.93,3.53-4.9c5.03,0.05,10.05,0.36,15.07,0.46c2.01,0.04,4.03-0.37,6.04-0.26
			c3.53,0.19,7.04,0.62,10.56,0.94c0.53,0.05,1.07,0.05,1.6,0.06c13.07,0.2,26.13,0.47,39.2,0.57c14.76,0.11,29.52-0.02,44.28,0.1
			c10.38,0.08,20.75,0.54,31.12,0.59c9.71,0.05,19.42-0.21,29.13-0.37c2.13-0.03,3.35,0.52,3.4,3.05
			c0.18,9.99,0.22,20.01,1.02,29.97c0.3,3.76-0.06,7.67,0.5,11.09c1.42,8.65,0.18,17.36,1.64,25.93c0.35,2.08,0.18,4.25,0.27,6.37
			c0.11,2.79-1.07,3.52-3.91,3.41c-8.12-0.31-16.26-0.21-24.39-0.22C1721.74,549.09,1721.06,549.47,1719.84,549.83z"/>
		<path d="M652.27,497.63c13.85,0,27.75-0.07,41.66,0.02c14.96,0.1,29.92,0.44,44.88,0.52c11.35,0.07,22.7-0.13,34.05-0.13
			c1.46,0,2.92,0.54,4.4,0.66c1.61,0.13,3.23,0.05,4.85,0.11c1.29,0.05,2.58,0.21,3.87,0.26c2.23,0.08,4.5,0.39,6.68,0.11
			c2.99-0.39,4.44,0.3,4.39,3.28c-0.08,4.53-0.66,9.05-0.86,13.58c-0.2,4.42-0.24,8.85-0.24,13.28c0,4.41-2.31,6.46-6.79,6.15
			c-6.26-0.43-12.53-0.91-18.81-1.02c-15.97-0.26-31.94-0.33-47.91-0.46c-19.71-0.17-39.42-0.32-59.13-0.5
			c-3.21-0.03-6.43-0.09-9.64-0.2c-2.34-0.08-3.18,0.99-3.26,3.29c-0.09,2.74-0.58,5.46-0.89,8.19c-0.05,0.43-0.16,0.85-0.14,1.28
			c0.25,4.71,0.78,9.43,0.71,14.14c-0.06,4.1-0.56,8.23-1.26,12.28c-0.91,5.28-1.08,5.39-6.67,5.41
			c-11.78,0.06-23.56-0.05-35.34-0.04c-2.33,0-2.63-1.6-2.59-3.25c0.14-7.06,0.38-14.12,0.61-21.18c0.24-7.27,0.44-14.55,0.77-21.82
			c0.66-14.72,1.45-29.43,2.06-44.14c0.2-4.79-0.21-9.61,0.01-14.39c0.21-4.5,1.06-8.96,1.33-13.45c0.39-6.51,0.28-6.5,6.9-5.96
			c1.39,0.11,2.78,0.08,4.18,0.1c12.87,0.16,25.75,0.33,38.62,0.46c8.31,0.09,16.63-0.01,24.94,0.24
			c5.27,0.16,10.52,0.94,15.79,1.21c2.79,0.14,5.6-0.33,8.39-0.3c4.33,0.04,8.65,0.33,12.98,0.41c4.44,0.08,8.89-0.02,13.33,0.04
			c5.7,0.07,11.41,0.21,17.11,0.3c13.64,0.21,27.28,0.35,40.92,0.64c5.77,0.12,5.8,0.26,5.68,6.18c-0.18,8.55-0.58,17.1-0.55,25.65
			c0.01,3.34-1.48,3.99-4.25,3.94c-9.75-0.2-19.49-0.35-29.24-0.47c-12.95-0.16-25.91-0.19-38.86-0.44
			c-19.65-0.39-39.3-0.93-58.95-1.38c-3.1-0.07-6.2,0-9.3,0.02C652.27,490.24,650.85,492.14,652.27,497.63z"/>
		<path d="M1040.18,495.54c0,11.61,0.04,22.78-0.02,33.96c-0.03,4.57-0.23,9.15-0.44,13.72c-0.14,3.07,0.56,3.71,3.64,3.72
			c17.03,0.06,34.05,0.17,51.08,0.29c5.49,0.04,10.98,0.14,16.47,0.28c14.21,0.34,28.41,0.77,42.62,1.05
			c8.56,0.17,17.12,0.13,25.69,0.17c3.39,0.01,4.84,2.72,3.76,6.77c-0.32,1.21-0.11,2.56-0.13,3.85c-0.03,1.47-0.07,2.93-0.06,4.4
			c0.02,2.21,0.09,4.42,0.15,6.63c0.04,1.7,0.11,3.41,0.15,5.11c0.04,1.79,0.08,3.58,0.07,5.36c-0.02,2.26-1.09,3.74-3.44,3.73
			c-11.36-0.04-22.72-0.12-34.08-0.26c-6.48-0.08-12.96-0.34-19.44-0.44c-16.91-0.27-33.83-0.56-50.74-0.73
			c-12.83-0.13-25.66-0.06-38.49-0.15c-12.64-0.1-25.28-0.3-37.92-0.43c-1.93-0.02-2.79-0.5-2.76-2.79c0.2-15.2,0.2-30.4,0.28-45.59
			c0.04-6.96-0.44-13.98,0.38-20.85c0.47-3.89-0.15-7.49-0.21-11.22c-0.07-4.01,0.73-8.03,0.87-12.06c0.06-1.6-0.9-3.23-0.94-4.86
			c-0.06-2.35,0.33-4.71,0.46-7.07c0.27-4.83,0.58-9.67,0.71-14.5c0.11-4.17,0.45-4.62,4.61-4.57c21.07,0.25,42.14,0.45,63.21,0.78
			c8.05,0.12,16.1,0.65,24.16,0.79c15.03,0.25,30.05,0.34,45.08,0.5c14.73,0.16,29.45,0.33,44.18,0.45
			c2.36,0.02,3.06,0.93,3.01,3.33c-0.19,8.12-0.12,16.24-0.14,24.36c0,0.75,0.16,1.49,0.18,2.24c0.15,4.91-0.45,5.66-5.26,5.54
			c-6.6-0.17-13.19-0.7-19.79-0.78c-4.89-0.07-9.78,0.48-14.67,0.47c-3.92-0.01-7.84-0.61-11.76-0.66
			c-16.28-0.2-32.56-0.28-48.84-0.43c-12.52-0.12-25.03-0.29-37.55-0.4C1043.01,495.19,1041.75,495.41,1040.18,495.54z"/>
		<path d="M946.76,510.98c-4.28,3.45-8.13,6.47-11.88,9.61c-5.88,4.93-11.63,10.01-17.55,14.9c-6.75,5.57-13.63,10.99-20.44,16.49
			c-4.45,3.6-8.95,7.15-13.31,10.86c-5.49,4.66-10.8,9.54-16.34,14.14c-2.68,2.23-5.44,3.9-9.49,3.77
			c-16.28-0.51-32.57-0.48-48.85-0.65c-0.64-0.01-1.31,0.05-1.92-0.11c-0.67-0.18-1.29-0.56-1.94-0.86c0.37-0.7,0.58-1.58,1.13-2.07
			c4.63-4.1,9.26-8.21,14.03-12.16c6.59-5.45,13.36-10.67,19.94-16.14c7.4-6.15,14.64-12.49,22.01-18.67
			c3.85-3.23,7.91-6.23,11.75-9.47c2.65-2.23,5.02-4.78,7.64-7.04c3.07-2.65,6.31-5.12,9.43-7.71c4.53-3.77,9.01-7.61,13.55-11.36
			c5.98-4.95,12.08-9.76,18-14.78c7.56-6.41,14.9-13.07,22.49-19.44c8.14-6.83,16.44-13.46,24.69-20.16
			c5.03-4.08,10.07-8.16,15.16-12.16c1.37-1.07,2.97-1.86,4.46-2.78c0.23,1.93,0.55,3.86,0.67,5.8c0.14,2.19,0.19,4.4,0.09,6.6
			c-0.07,1.56-0.43,3.11-0.68,4.66c-0.08,0.52-0.39,1.07-0.31,1.56c1.39,8.12-1.07,16.26,0.44,24.46c0.79,4.29-0.4,8.91-0.41,13.38
			c-0.01,8.93,0.36,17.85,0.25,26.78c-0.14,11.41-0.72,22.82-0.91,34.24c-0.19,11.63-0.2,23.26-0.16,34.89
			c0.02,4.55-0.01,4.84-4.45,4.82c-11.25-0.06-22.49-0.26-33.74-0.27c-2.58,0-3.42-1.1-3.39-3.47c0.15-11.36,0.3-22.72,0.38-34.08
			c0.08-10.37,0.08-20.74,0.08-31.11C947.2,512.84,946.99,512.23,946.76,510.98z"/>
		<path d="M1298.26,585.45c-0.7,0.14-1.21,0.33-1.72,0.33c-11.03-0.13-22.06-0.26-33.09-0.46c-2.3-0.04-5.3,0.44-6.67-0.79
			c-1.17-1.04-0.56-4.18-0.58-6.4c-0.08-9.63-0.01-19.27-0.17-28.9c-0.18-11.32-0.55-22.63-0.79-33.95
			c-0.09-4.27-0.08-8.54-0.04-12.81c0.02-2.18-0.89-3.03-3.1-3.01c-4.93,0.06-9.86,0.01-14.79-0.14c-11.67-0.35-23.33-0.79-35-1.17
			c-3.42-0.11-6.84-0.21-10.26-0.17c-2.37,0.03-3.24-1.07-3.23-3.31c0.03-5.99,0.01-11.97-0.01-17.96
			c-0.01-3.84,0.14-7.7-0.16-11.52c-0.19-2.53,0.66-3.19,3.03-3.12c11.11,0.32,22.23,0.62,33.35,0.75
			c5.79,0.07,11.6-0.42,17.39-0.31c5.92,0.11,11.82,0.83,17.73,0.95c11.76,0.24,23.53,0.22,35.3,0.35
			c15.31,0.17,30.61,0.4,45.92,0.58c5.99,0.07,11.98,0.16,17.97,0.1c2.17-0.02,2.76,1.06,2.94,2.92c0.24,2.5,0.67,4.98,0.91,7.47
			c0.08,0.82-0.1,1.69-0.28,2.51c-0.11,0.5-0.66,0.96-0.64,1.43c0.19,4.72-0.01,9.53,0.83,14.14c0.84,4.59-0.76,7.66-5.42,7.72
			c-5.24,0.06-10.48-0.22-15.71-0.25c-10.98-0.06-21.96-0.02-32.94-0.1c-2.66-0.02-5.32-0.48-7.97-0.49c-2.57,0-4.06,0.63-3.95,4.11
			c0.4,12.58,0.24,25.17,0.35,37.76c0.09,9.83,0.24,19.66,0.4,29.49C1297.94,575.9,1298.12,580.61,1298.26,585.45z"/>
		<rect x="1387.62" y="483.31" class="st2" width="152.16" height="89.27"/>
	</g>
	<text transform="matrix(1.6036 0 0 1 804.8657 637.3096)" class="st3 st4 st5">Enterprise Resource Planning</text>
</g>
</svg>
